# xmcd
#
# Track frame offsets: 
#        150
#        25679
#        42474
#        67378
#        90562
#        116228
#        145370
#        171355
#        191986
#        213906
#        243845
#        264676
#
# Disc length: 3876 seconds
#
# Revision: 0
# Processed by: cddbd v1.5.2PL0 Copyright (c) Steve Scherf et al.
# Submitted via: ExactAudioCopyFreeDBPlugin 1.0
#
DISCID=bb0f220c
DTITLE=Joe Bonamassa - 2016 Album Giveaway
DYEAR=2016
DGENRE=Bluesrock
TTITLE0=I Know Where I Belong
TTITLE1=Mountain Time
TTITLE2=The River
TTITLE3=Bridge To Better Days
TTITLE4=One Of These Days
TTITLE5=The Ballad Of John Henry
TTITLE6=Blue And Evil
TTITLE7=Dust Bowl
TTITLE8=Driving Towards The Daylight
TTITLE9=Slow Train
TTITLE10=Different Shades Of Blue
TTITLE11=Drive
EXTD=
EXTT0=
EXTT1=
EXTT2=
EXTT3=
EXTT4=
EXTT5=
EXTT6=
EXTT7=
EXTT8=
EXTT9=
EXTT10=
EXTT11=
PLAYORDER=
